<?xml version="1.0" standalone="no"?>
<!DOCTYPE svg PUBLIC "-//W3C//DTD SVG 20010904//EN"
 "http://www.w3.org/TR/2001/REC-SVG-20010904/DTD/svg10.dtd">
<svg version="1.0" xmlns="http://www.w3.org/2000/svg"
 width="44.000000pt" height="50.000000pt" viewBox="0 0 44.000000 50.000000"
 preserveAspectRatio="xMidYMid meet">
<metadata>
Created by potrace 1.10, written by Peter Selinger 2001-2011
</metadata>
<g transform="translate(0.000000,50.000000) scale(0.100000,-0.100000)"
fill="#000000" stroke="none">
<path d="M170 481 c-5 -11 -10 -28 -10 -39 0 -11 -7 -22 -15 -26 -11 -4 -15 1
-15 19 0 23 -4 25 -45 25 l-45 0 0 -65 c0 -37 4 -65 10 -65 6 0 10 25 10 55 0
52 1 55 25 55 37 0 40 -22 11 -65 -14 -21 -26 -44 -26 -51 0 -8 -7 -14 -15
-14 -12 0 -15 -13 -15 -60 0 -47 -3 -60 -15 -60 -13 0 -15 -13 -13 -72 3 -69
4 -73 28 -76 13 -2 30 -13 38 -23 12 -17 27 -19 142 -19 115 0 130 2 142 19 8
10 25 21 38 23 23 3 25 7 28 71 2 53 0 68 -13 73 -11 5 -15 21 -15 65 0 48 -3
57 -15 53 -10 -4 -15 0 -15 14 0 10 -12 36 -26 57 -29 43 -26 65 11 65 24 0
25 -3 25 -55 0 -30 5 -55 10 -55 6 0 10 28 10 65 l0 65 -45 0 c-41 0 -45 -2
-45 -25 0 -18 -4 -23 -15 -19 -8 4 -15 15 -15 26 0 40 -19 58 -60 58 -29 0
-42 -5 -50 -19z m85 -1 c4 -6 -10 -10 -35 -10 -25 0 -39 4 -35 10 3 6 19 10
35 10 16 0 32 -4 35 -10z m40 -80 c55 -34 65 -69 65 -228 0 -92 -4 -143 -11
-148 -21 -13 -224 -17 -247 -5 -21 11 -22 18 -22 152 0 159 11 198 64 230 41
25 110 25 151 -1z m95 -161 c0 -27 -3 -48 -8 -45 -7 4 -4 96 4 96 2 0 4 -23 4
-51z m-332 -152 c3 -22 -1 -27 -17 -27 -17 0 -21 6 -21 31 0 24 4 30 18 27 10
-2 18 -14 20 -31z m362 3 c0 -39 -35 -43 -42 -5 -6 29 -2 35 24 35 13 0 18 -8
18 -30z"/>
<path d="M163 394 c-37 -18 -82 -99 -66 -115 7 -7 13 1 17 25 20 108 170 116
207 11 14 -38 35 -49 23 -12 -15 48 -35 75 -68 91 -42 20 -72 20 -113 0z"/>
<path d="M164 326 c-3 -8 -4 -25 -2 -38 3 -21 8 -23 58 -23 l55 0 0 35 0 35
-53 3 c-39 2 -54 -1 -58 -12z m96 -26 c0 -17 -7 -20 -40 -20 -33 0 -40 3 -40
20 0 17 7 20 40 20 33 0 40 -3 40 -20z"/>
<path d="M312 263 l-2 -43 -75 0 c-48 0 -75 -4 -75 -11 0 -7 28 -10 85 -8 l86
4 -3 -75 c-2 -41 -6 -74 -10 -72 -5 1 -53 2 -108 2 l-100 0 0 70 c0 64 2 70
21 70 11 0 17 5 14 10 -3 6 -15 10 -26 10 -18 0 -20 -6 -17 -87 l3 -88 109 -3
c71 -2 113 1 122 9 20 16 19 142 0 162 -8 8 -16 32 -19 53 l-4 39 -1 -42z"/>
<path d="M130 170 c0 -6 32 -10 75 -10 47 0 75 -4 75 -11 0 -6 7 -4 15 5 8 8
15 17 15 20 0 3 -40 6 -90 6 -53 0 -90 -4 -90 -10z"/>
</g>
</svg>
